<svg width="1728" height="1117" viewBox="0 0 1728 1117" fill="none" xmlns="http://www.w3.org/2000/svg">
<g clip-path="url(#clip0_307_842)">
<line x1="49.5" y1="1117" x2="49.5" stroke="white"/>
<line x1="99.5" y1="1117" x2="99.5" stroke="white"/>
<line x1="149.5" y1="1117" x2="149.5" stroke="white"/>
<line x1="199.5" y1="1117" x2="199.5" stroke="white"/>
<line x1="249.5" y1="1117" x2="249.5" stroke="white"/>
<line x1="299.5" y1="1117" x2="299.5" stroke="white"/>
<line x1="349.5" y1="1117" x2="349.5" stroke="white"/>
<line x1="399.5" y1="1117" x2="399.5" stroke="white"/>
<line x1="449.5" y1="1117" x2="449.5" stroke="white"/>
<line x1="499.5" y1="1117" x2="499.5" stroke="white"/>
<line x1="549.5" y1="1117" x2="549.5" stroke="white"/>
<line x1="599.5" y1="1117" x2="599.5" stroke="white"/>
<line x1="649.5" y1="1117" x2="649.5" stroke="white"/>
<line x1="699.5" y1="1117" x2="699.5" stroke="white"/>
<line x1="749.5" y1="1117" x2="749.5" stroke="white"/>
<line x1="799.5" y1="1117" x2="799.5" stroke="white"/>
<line x1="849.5" y1="1117" x2="849.5" stroke="white"/>
<line x1="899.5" y1="1117" x2="899.5" stroke="white"/>
<line x1="949.5" y1="1117" x2="949.5" stroke="white"/>
<line x1="999.5" y1="1117" x2="999.5" stroke="white"/>
<line x1="1049.5" y1="1117" x2="1049.5" stroke="white"/>
<line x1="1099.5" y1="1117" x2="1099.5" stroke="white"/>
<line x1="1149.5" y1="1117" x2="1149.5" stroke="white"/>
<line x1="1199.5" y1="1117" x2="1199.5" stroke="white"/>
<line x1="1249.5" y1="1117" x2="1249.5" stroke="white"/>
<line x1="1299.5" y1="1117" x2="1299.5" stroke="white"/>
<line x1="1349.5" y1="1117" x2="1349.5" stroke="white"/>
<line x1="1399.5" y1="1117" x2="1399.5" stroke="white"/>
<line x1="1449.5" y1="1117" x2="1449.5" stroke="white"/>
<line x1="1499.5" y1="1117" x2="1499.5" stroke="white"/>
<line x1="1549.5" y1="1117" x2="1549.5" stroke="white"/>
<line x1="1599.5" y1="1117" x2="1599.5" stroke="white"/>
<line x1="1649.5" y1="1117" x2="1649.5" stroke="white"/>
<line x1="1699.5" y1="1117" x2="1699.5" stroke="white"/>
<line y1="49.5" x2="1728" y2="49.5" stroke="white"/>
<line y1="99.5" x2="1728" y2="99.5" stroke="white"/>
<line y1="149.5" x2="1728" y2="149.5" stroke="white"/>
<line y1="199.5" x2="1728" y2="199.5" stroke="white"/>
<line y1="249.5" x2="1728" y2="249.5" stroke="white"/>
<line y1="299.5" x2="1728" y2="299.5" stroke="white"/>
<line y1="349.5" x2="1728" y2="349.5" stroke="white"/>
<line y1="399.5" x2="1728" y2="399.5" stroke="white"/>
<line y1="449.5" x2="1728" y2="449.5" stroke="white"/>
<line y1="499.5" x2="1728" y2="499.5" stroke="white"/>
<line y1="549.5" x2="1728" y2="549.5" stroke="white"/>
<line y1="599.5" x2="1728" y2="599.5" stroke="white"/>
<line y1="649.5" x2="1728" y2="649.5" stroke="white"/>
<line y1="699.5" x2="1728" y2="699.5" stroke="white"/>
<line y1="749.5" x2="1728" y2="749.5" stroke="white"/>
<line y1="799.5" x2="1728" y2="799.5" stroke="white"/>
<line y1="849.5" x2="1728" y2="849.5" stroke="white"/>
<line y1="899.5" x2="1728" y2="899.5" stroke="white"/>
<line y1="949.5" x2="1728" y2="949.5" stroke="white"/>
<line y1="999.5" x2="1728" y2="999.5" stroke="white"/>
<line y1="1049.5" x2="1728" y2="1049.5" stroke="white"/>
<line y1="1099.5" x2="1728" y2="1099.5" stroke="white"/>
</g>
<defs>
<clipPath id="clip0_307_842">
<rect width="1728" height="1117" fill="white"/>
</clipPath>
</defs>
</svg>
