<svg width="189" height="38" viewBox="0 0 189 38" fill="none" xmlns="http://www.w3.org/2000/svg">
<path fill-rule="evenodd" clip-rule="evenodd" d="M17 34C26.3889 34 34 26.3888 34 17C34 7.61117 26.3889 0 17 0C7.61115 0 0 7.61117 0 17C0 26.3888 7.61115 34 17 34ZM22.3034 7.91932C22.5616 7.00235 21.6717 6.46011 20.859 7.03911L9.51416 15.1211C8.63279 15.749 8.77143 17 9.72241 17H12.7098V16.9769H18.5322L13.788 18.6508L11.6966 26.0807C11.4385 26.9977 12.3283 27.5399 13.141 26.9609L24.4859 18.8789C25.3673 18.251 25.2285 17 24.2776 17H19.7473L22.3034 7.91932Z" fill="#ffffff"/>
<path d="M77.8574 8.68164H81.8359L75.8066 28H71.9512L68.1367 14.5879L64.3086 28H60.4668L54.4238 8.68164H58.5117L62.4902 22.7363L66.4824 8.68164H69.873L73.8789 22.7363L77.8574 8.68164ZM95.959 20.8906C95.959 21.3464 95.9316 21.7747 95.877 22.1758H84.8164C85.0716 23.0781 85.5592 23.7936 86.2793 24.3223C86.9993 24.8509 87.8743 25.1152 88.9043 25.1152C89.7337 25.1152 90.4948 24.9512 91.1875 24.623C91.8802 24.2858 92.4271 23.862 92.8281 23.3516L95.2617 25.4844C94.5052 26.3867 93.5664 27.0885 92.4453 27.5898C91.3333 28.0911 90.1165 28.3418 88.7949 28.3418C87.3001 28.3418 85.9466 28.0137 84.7344 27.3574C83.5221 26.7012 82.5742 25.7988 81.8906 24.6504C81.207 23.4928 80.8652 22.2122 80.8652 20.8086C80.8652 19.4232 81.1934 18.1654 81.8496 17.0352C82.515 15.8958 83.4264 15.0026 84.584 14.3555C85.7507 13.7083 87.0404 13.3848 88.4531 13.3848C90.5951 13.3848 92.3815 14.1003 93.8125 15.5312C95.2435 16.9531 95.959 18.7396 95.959 20.8906ZM90.7363 17.377C90.0801 16.8392 89.3099 16.5703 88.4258 16.5703C87.5417 16.5703 86.7715 16.8392 86.1152 17.377C85.459 17.9056 85.0169 18.6165 84.7891 19.5098H92.0762C91.8483 18.6165 91.4017 17.9056 90.7363 17.377ZM106.787 13.3848C108.09 13.3848 109.271 13.7129 110.328 14.3691C111.395 15.0163 112.229 15.9141 112.83 17.0625C113.432 18.2018 113.732 19.4688 113.732 20.8633C113.732 22.2578 113.432 23.5293 112.83 24.6777C112.229 25.8171 111.395 26.7148 110.328 27.3711C109.271 28.0182 108.09 28.3418 106.787 28.3418C104.91 28.3418 103.36 27.6582 102.139 26.291V28H98.502V7.83398H102.139V15.4219C103.351 14.0638 104.9 13.3848 106.787 13.3848ZM106.062 24.8145C107.193 24.8145 108.127 24.4408 108.865 23.6934C109.613 22.9368 109.986 21.9935 109.986 20.8633C109.986 19.7331 109.613 18.7943 108.865 18.0469C108.127 17.2904 107.193 16.9121 106.062 16.9121C104.941 16.9121 104.007 17.2904 103.26 18.0469C102.512 18.8034 102.139 19.7422 102.139 20.8633C102.139 21.9844 102.512 22.9232 103.26 23.6797C104.007 24.4362 104.941 24.8145 106.062 24.8145ZM124.574 17.0488H120.732V22.9824C120.732 24.2038 121.389 24.8145 122.701 24.8145C123.257 24.8145 123.882 24.6549 124.574 24.3359V27.7266C123.818 28.1367 122.929 28.3418 121.908 28.3418C120.313 28.3418 119.11 27.918 118.299 27.0703C117.497 26.2135 117.096 25.0469 117.096 23.5703V17.0488H114.826V13.7266H117.096V10.1035H120.732V13.7266H124.574V17.0488ZM135.02 13.4941H135.635V17.2539H135.02C133.725 17.2539 132.714 17.6094 131.984 18.3203C131.264 19.0312 130.904 19.9974 130.904 21.2188V28H127.268V13.7266H130.904V15.5723C131.998 14.1868 133.37 13.4941 135.02 13.4941ZM148.227 13.7266H151.863V28H148.227V26.291C146.978 27.6582 145.428 28.3418 143.578 28.3418C141.591 28.3418 139.932 27.6263 138.602 26.1953C137.271 24.7643 136.605 22.987 136.605 20.8633C136.605 18.7396 137.271 16.9622 138.602 15.5312C139.932 14.1003 141.591 13.3848 143.578 13.3848C145.438 13.3848 146.987 14.0638 148.227 15.4219V13.7266ZM144.275 24.8145C145.406 24.8145 146.344 24.4362 147.092 23.6797C147.848 22.9232 148.227 21.9844 148.227 20.8633C148.227 19.7422 147.848 18.8034 147.092 18.0469C146.344 17.2904 145.406 16.9121 144.275 16.9121C143.154 16.9121 142.22 17.2904 141.473 18.0469C140.725 18.8034 140.352 19.7422 140.352 20.8633C140.352 21.9844 140.725 22.9232 141.473 23.6797C142.22 24.4362 143.154 24.8145 144.275 24.8145ZM166.137 7.83398H169.773V28H166.137V26.291C164.888 27.6582 163.339 28.3418 161.488 28.3418C159.501 28.3418 157.842 27.6263 156.512 26.1953C155.181 24.7643 154.516 22.987 154.516 20.8633C154.516 18.7396 155.181 16.9622 156.512 15.5312C157.842 14.1003 159.501 13.3848 161.488 13.3848C163.348 13.3848 164.897 14.0638 166.137 15.4219V7.83398ZM162.186 24.8145C163.316 24.8145 164.255 24.4362 165.002 23.6797C165.758 22.9232 166.137 21.9844 166.137 20.8633C166.137 19.7422 165.758 18.8034 165.002 18.0469C164.255 17.2904 163.316 16.9121 162.186 16.9121C161.064 16.9121 160.13 17.2904 159.383 18.0469C158.635 18.8034 158.262 19.7422 158.262 20.8633C158.262 21.9844 158.635 22.9232 159.383 23.6797C160.13 24.4362 161.064 24.8145 162.186 24.8145ZM187.451 20.8906C187.451 21.3464 187.424 21.7747 187.369 22.1758H176.309C176.564 23.0781 177.051 23.7936 177.771 24.3223C178.492 24.8509 179.367 25.1152 180.396 25.1152C181.226 25.1152 181.987 24.9512 182.68 24.623C183.372 24.2858 183.919 23.862 184.32 23.3516L186.754 25.4844C185.997 26.3867 185.059 27.0885 183.938 27.5898C182.826 28.0911 181.609 28.3418 180.287 28.3418C178.792 28.3418 177.439 28.0137 176.227 27.3574C175.014 26.7012 174.066 25.7988 173.383 24.6504C172.699 23.4928 172.357 22.2122 172.357 20.8086C172.357 19.4232 172.686 18.1654 173.342 17.0352C174.007 15.8958 174.919 15.0026 176.076 14.3555C177.243 13.7083 178.533 13.3848 179.945 13.3848C182.087 13.3848 183.874 14.1003 185.305 15.5312C186.736 16.9531 187.451 18.7396 187.451 20.8906ZM182.229 17.377C181.572 16.8392 180.802 16.5703 179.918 16.5703C179.034 16.5703 178.264 16.8392 177.607 17.377C176.951 17.9056 176.509 18.6165 176.281 19.5098H183.568C183.34 18.6165 182.894 17.9056 182.229 17.377Z" fill="#ffffff"/>
</svg>
